<svg style="fill:#42e8df" height="480pt" viewBox="0 0 480 480" width="480pt" xmlns="http://www.w3.org/2000/svg"><path d="m224 256v-48c0-8.207031-6.71875-14.832031-20.335938-20 13.617188-5.167969 20.335938-11.792969 20.335938-20v-48c0-8.207031-6.71875-14.832031-20.335938-20 13.617188-5.167969 20.335938-11.792969 20.335938-20v-48c0-31.105469-100.535156-32-112-32s-112 .894531-112 32v48c0 8.207031 6.71875 14.832031 20.34375 20-13.617188 5.167969-20.34375 11.792969-20.34375 20v48c0 8.207031 6.71875 14.832031 20.34375 20-13.617188 5.167969-20.34375 11.792969-20.34375 20v48c0 31.105469 100.535156 32 112 32s112-.894531 112-32zm-16.800781-47.664062c-.207031.191406-.4375.382812-.695313.585937-.257812.199219-.59375.429687-.9375.644531-.34375.21875-.628906.402344-.992187.601563-.359375.199219-.847657.464843-1.316407.695312-.472656.234375-.800781.410157-1.289062.617188s-1.097656.480469-1.6875.726562c-.59375.25-1.023438.417969-1.601562.625-.574219.207031-1.34375.488281-2.046876.726563-.703124.242187-1.21875.425781-1.863281.632812-.800781.25-1.601562.488282-2.402343.738282l-2.144532.613281c-.871094.242187-1.808594.480469-2.742187.714843l-2.457031.613282c-.992188.234375-2.039063.457031-3.085938.6875-.890625.195312-1.769531.394531-2.707031.578125-1.109375.222656-2.285157.449219-3.453125.664062-.976563.183594-1.945313.367188-2.960938.542969-1.230468.207031-2.527344.410156-3.808594.609375-1.054687.167969-2.085937.335937-3.199218.496094-1.359375.199219-2.792969.375-4.214844.558593-1.121094.152344-2.210938.304688-3.371094.441407-1.46875.167969-3.023437.328125-4.558594.488281-1.199218.125-2.398437.253906-3.601562.375-1.597656.144531-3.320312.273438-5 .40625-1.230469.097656-2.398438.210938-3.703125.296875-1.839844.128906-3.773437.222656-5.6875.328125-1.183594.0625-2.335937.144531-3.550781.199219-2.191406.105469-4.480469.167969-6.761719.242187-1.015625 0-1.992187.070313-3.03125.09375-3.359375.082032-6.804687.121094-10.328125.121094s-6.960938-.039062-10.3125-.121094c-1.039062 0-2.015625-.070312-3.03125-.09375-2.28125-.074218-4.566406-.136718-6.761719-.242187-1.214843-.054688-2.398437-.136719-3.550781-.199219-1.910156-.105469-3.847656-.199219-5.6875-.328125-1.273438-.085937-2.472656-.199219-3.710938-.296875-1.679687-.132812-3.378906-.261719-4.992187-.40625-1.234375-.121094-2.402344-.257812-3.609375-.375-1.527344-.160156-3.078125-.320312-4.550781-.488281-1.160157-.136719-2.25-.289063-3.367188-.441407-1.425781-.183593-2.859375-.359374-4.21875-.558593-1.09375-.160157-2.128906-.328125-3.199219-.496094-1.28125-.199219-2.574218-.402344-3.808593-.609375-1.015625-.175781-1.984375-.359375-2.960938-.542969-1.167969-.214843-2.34375-.441406-3.453125-.664062-.9375-.183594-1.816406-.382813-2.707031-.578125-1.046875-.230469-2.09375-.453125-3.085937-.6875l-2.457032-.613282c-.933594-.234374-1.871094-.472656-2.742187-.714843l-2.144531-.613281c-.800782-.25-1.648438-.488282-2.402344-.738282l-1.878906-.589844c-.703126-.242187-1.390626-.488281-2.03125-.730468-.640626-.238282-1.078126-.414063-1.601563-.632813-.519531-.214843-1.160156-.476562-1.6875-.71875-.527344-.238281-.878906-.40625-1.285156-.617187-.410157-.207032-.914063-.460938-1.320313-.695313-.410156-.230469-.6875-.398437-.992187-.597656-.304688-.203125-.65625-.441406-.9375-.648437-.28125-.207032-.488281-.394532-.695313-.585938-.207031-.191406-.207031-.222656-.3125-.335938 2.65625-2.472656 12.800782-7.894531 37.992188-11.902343 1.886718.269531 3.894531.472656 5.832031.71875 2.519531.320312 5 .664062 7.601563.9375.359374 0 .726562.0625 1.085937.09375 14.285156 1.433593 28.628906 2.136719 42.984375 2.113281 14.300781.007812 28.59375-.707031 42.824219-2.136719l1.253906-.109375c2.59375-.273437 5.066406-.617187 7.578125-.9375 1.9375-.25 3.953125-.449218 5.839844-.71875 25.207031 4 35.335937 9.429688 37.992187 11.902344-.105469.113281-.191406.222656-.289062.335938zm0-88c-.207031.191406-.4375.382812-.695313.585937-.257812.199219-.59375.429687-.9375.644531-.34375.21875-.628906.402344-.992187.601563-.359375.199219-.847657.464843-1.316407.695312-.472656.234375-.800781.410157-1.289062.617188s-1.097656.480469-1.6875.726562c-.59375.25-1.023438.417969-1.601562.625-.574219.207031-1.34375.488281-2.046876.726563-.703124.242187-1.21875.425781-1.863281.632812-.800781.25-1.601562.488282-2.402343.738282l-2.144532.613281c-.871094.242187-1.808594.480469-2.742187.714843l-2.457031.613282c-.992188.234375-2.039063.457031-3.085938.6875-.890625.195312-1.769531.394531-2.707031.578125-1.109375.222656-2.285157.449219-3.453125.664062-.976563.183594-1.945313.367188-2.960938.542969-1.230468.207031-2.527344.410156-3.808594.609375-1.054687.167969-2.085937.335937-3.199218.496094-1.359375.199219-2.792969.375-4.214844.558593-1.121094.152344-2.210938.304688-3.371094.441407-1.46875.167969-3.023437.328125-4.558594.488281-1.199218.125-2.398437.253906-3.601562.375-1.597656.144531-3.320312.273438-5 .40625-1.230469.097656-2.398438.210938-3.703125.296875-1.839844.128906-3.773437.222656-5.6875.328125-1.183594.0625-2.335937.144531-3.550781.199219-2.191406.105469-4.480469.167969-6.761719.242187-1.015625 0-1.992187.070313-3.03125.09375-3.359375.082032-6.804687.121094-10.328125.121094s-6.960938-.039062-10.3125-.121094c-1.039062 0-2.015625-.070312-3.03125-.09375-2.28125-.074218-4.566406-.136718-6.761719-.242187-1.214843-.054688-2.398437-.136719-3.550781-.199219-1.910156-.105469-3.847656-.199219-5.6875-.328125-1.273438-.085937-2.472656-.199219-3.710938-.296875-1.679687-.132812-3.378906-.261719-4.992187-.40625-1.234375-.121094-2.402344-.257812-3.609375-.375-1.527344-.160156-3.078125-.320312-4.550781-.488281-1.160157-.136719-2.25-.289063-3.367188-.441407-1.425781-.183593-2.859375-.359374-4.21875-.558593-1.09375-.160157-2.128906-.328125-3.199219-.496094-1.28125-.199219-2.574218-.402344-3.808593-.609375-1.015625-.175781-1.984375-.359375-2.960938-.542969-1.167969-.214843-2.34375-.441406-3.453125-.664062-.9375-.183594-1.816406-.382813-2.707031-.578125-1.046875-.230469-2.09375-.453125-3.085937-.6875l-2.457032-.613282c-.933594-.234374-1.871094-.472656-2.742187-.714843l-2.144531-.613281c-.800782-.25-1.648438-.488282-2.402344-.738282l-1.878906-.589844c-.703126-.242187-1.390626-.488281-2.03125-.730468-.640626-.238282-1.078126-.414063-1.601563-.632813-.519531-.214843-1.160156-.476562-1.6875-.71875-.527344-.238281-.878906-.40625-1.285156-.617187-.410157-.207032-.914063-.460938-1.320313-.695313-.410156-.230469-.6875-.398437-.992187-.597656-.304688-.203125-.65625-.441406-.9375-.648437-.28125-.207032-.488281-.394532-.695313-.585938-.207031-.191406-.207031-.222656-.3125-.335938 2.65625-2.472656 12.800782-7.894531 37.992188-11.902343 1.886718.269531 3.894531.472656 5.832031.71875 2.519531.320312 5 .664062 7.601563.9375.359374.039062.726562.0625 1.085937.09375 14.285156 1.433593 28.628906 2.136719 42.984375 2.113281 14.300781.007812 28.59375-.707031 42.824219-2.136719l1.253906-.109375c2.59375-.273437 5.066406-.617187 7.578125-.9375 1.9375-.25 3.953125-.449218 5.839844-.71875 25.207031 4 35.335937 9.429688 37.992187 11.902344-.105469.113281-.191406.222656-.289062.335938zm.320312-88.335938c-.09375.105469-.191406.214844-.304687.328125-.230469.222656-.476563.429687-.734375.625-.261719.195313-.550781.394531-.863281.597656-.335938.21875-.6875.441407-1.082032.65625-.390625.21875-.800781.425781-1.207031.640625s-.894531.449219-1.398437.671875c-.503907.222657-1.007813.441407-1.546876.664063-.535156.222656-1.117187.457031-1.726562.6875-.609375.234375-1.242188.449218-1.886719.671875-.648437.226562-1.3125.457031-2.027343.679687-.710938.226563-1.484376.457032-2.253907.6875-.769531.234375-1.496093.441406-2.304687.664063-.808594.226562-1.703125.449219-2.582032.671875-.882812.226562-1.699218.441406-2.601562.648437-.902344.210938-1.945312.441407-2.9375.65625-.992188.21875-1.871094.417969-2.863281.617188-.992188.199219-2.175781.425781-3.289063.632812-1.109375.207031-2.039062.382813-3.117187.566407-1.082031.183593-2.402344.402343-3.679688.59375-1.089843.175781-2.160156.351562-3.296875.519531-1.328125.191406-2.738281.367187-4.128906.542969-1.144531.152343-2.273438.3125-3.457031.449218-1.4375.175782-2.941407.320313-4.429688.480469-1.25.125-2.457031.261719-3.746093.382813-1.597657.152343-3.238282.273437-4.878907.40625-1.265625.097656-2.503906.210937-3.808593.304687-1.824219.128906-3.734376.226563-5.597657.328125-1.21875.066406-2.402343.144531-3.625.199219-2.183593.105469-4.457031.167969-6.71875.234375-1.035156 0-2.027343.078125-3.074219.101562-3.375.058594-6.828124.089844-10.351562.089844s-6.96875-.039062-10.328125-.121094c-1.046875 0-2.039063-.070312-3.070313-.101562-2.265624-.066406-4.539062-.128906-6.722656-.234375-1.238281-.054688-2.398437-.136719-3.621094-.199219-1.890624-.105469-3.800781-.199219-5.601562-.328125-1.304688-.09375-2.542969-.207031-3.808594-.304687-1.640625-.136719-3.304687-.253907-4.878906-.40625-1.289062-.121094-2.496094-.257813-3.746094-.382813-1.488281-.160156-2.992187-.304687-4.429687-.480469-1.183594-.136718-2.3125-.296875-3.457031-.449218-1.390626-.175782-2.800782-.351563-4.128907-.542969-1.136719-.167969-2.207031-.34375-3.296875-.519531-1.238281-.195313-2.496094-.386719-3.679687-.59375-1.183594-.207032-2.085938-.375-3.117188-.566407-1.035156-.195312-2.234375-.417969-3.289062-.632812-1.054688-.214844-1.921875-.410157-2.863281-.617188-.945313-.207031-1.992188-.429687-2.9375-.65625-.945313-.222656-1.75-.429687-2.597657-.648437-.851562-.214844-1.761719-.445313-2.585937-.671875-.824219-.222657-1.550782-.4375-2.304688-.664063-.75-.222656-1.542968-.453125-2.253906-.6875-.714844-.230468-1.371094-.457031-2.023438-.679687-.65625-.222657-1.296874-.449219-1.890624-.671875-.589844-.222656-1.167969-.464844-1.726563-.6875-.5625-.222656-1.066406-.441406-1.542969-.664063-.480468-.222656-.960937-.449219-1.402344-.671875-.4375-.222656-.800781-.425781-1.207031-.640625-.410156-.214843-.769531-.441406-1.089843-.65625-.320313-.214843-.597657-.398437-.863282-.597656-.257812-.195313-.5-.402344-.734375-.625-.128906-.113281-.226562-.226563-.320312-.296875 5.785156-6.167969 40.136719-16 95.519531-16s89.734375 9.832031 95.519531 16zm-191.519531 48v-29.832031l.160156.070312c1.601563.714844 3.199219 1.386719 4.953125 2.027344l1.3125.488281c1.796875.636719 3.652344 1.253906 5.597657 1.820313l.25.074219c1.886718.550781 3.832031 1.054687 5.816406 1.542968l1.597656.382813c2.054688.480469 4.144531.945312 6.28125 1.371093h.222656c2.097656.414063 4.234375.796876 6.402344 1.152344l1.597656.269532c2.199219.351562 4.402344.6875 6.609375.992187h.121094c2.199219.296875 4.390625.5625 6.574219.800781l1.640625.183594c2.175781.242188 4.332031.460938 6.472656.664062h.167969c2.101562.191407 4.167968.359376 6.199218.519532l1.597657.121094c2.019531.144531 4 .289062 5.929687.398437h.070313c1.929687.113281 3.769531.210937 5.601562.296875l1.351563.0625c1.738281.082031 3.425781.152344 4.992187.210938h.082031c1.597657.054687 3.03125.101562 4.414063.136718h1.023437c2.6875.0625 4.914063.09375 6.59375.101563h4.933594c1.664063 0 3.875 0 6.546875-.101563h1.117188c1.371093 0 2.808593-.082031 4.378906-.136718h.078125c1.601562-.058594 3.257812-.128907 4.984375-.210938l1.367187-.0625c1.785157-.085938 3.617188-.183594 5.527344-.296875h.113282c1.914062-.117187 3.894531-.253906 5.914062-.398437l1.597656-.121094c2.023438-.160156 4.082032-.328125 6.175782-.519532h.199218c2.113282-.191406 4.265625-.414062 6.402344-.65625l1.703125-.191406c2.152344-.25 4.3125-.511718 6.480469-.800781h.207031c2.183594-.296875 4.367187-.632813 6.542969-.984375l1.714844-.277344c2.152343-.363281 4.304687-.746094 6.398437-1.160156h.152344c2.128906-.425781 4.199219-.890625 6.257812-1.371094l1.597657-.390625c2-.488281 4-1.007812 5.863281-1.601562l.175781-.046875c1.929688-.574219 3.769531-1.191406 5.601562-1.832032l1.367188-.496093c1.722656-.648438 3.394531-1.320313 4.960938-2.039063l.136718-.054687.03125 29.09375c-1.039062 1.90625-10.585937 8.359375-39.824218 12.871093-28.328126 3.886719-56.980469 4.851563-85.503907 2.882813-4.742187-.320313-9.40625-.722656-13.953125-1.199219-4.542968-.480468-8.941406-1.042968-13.183594-1.675781-29.296874-4.503906-38.816406-10.957031-39.695312-12.078125zm0 88v-29.832031l.160156.070312c1.601563.714844 3.199219 1.386719 4.953125 2.027344l1.3125.488281c1.796875.636719 3.652344 1.253906 5.597657 1.820313l.25.074219c1.886718.550781 3.832031 1.054687 5.816406 1.542968l1.597656.382813c2.054688.480469 4.144531.945312 6.28125 1.371093l.222656.039063c2.097656.414063 4.234375.800781 6.402344 1.152344l1.597656.269531c2.199219.355469 4.402344.691406 6.609375.992188h.121094c2.199219.296874 4.390625.5625 6.574219.800781l1.640625.183593c2.175781.242188 4.332031.460938 6.472656.664063h.167969c2.101562.191406 4.167968.359375 6.199218.519531l1.597657.121094c2.019531.144531 4 .289062 5.929687.402344h.070313c1.929687.109375 3.769531.207031 5.601562.292968l1.351563.066407c1.738281.078125 3.425781.152343 4.992187.207031h.082031c1.597657.054688 3.03125.105469 4.414063.136719h1.023437c2.6875.0625 4.914063.09375 6.59375.101562h4.933594c1.664063 0 3.875-.039062 6.546875-.101562h1.117188c1.371093 0 2.808593-.082031 4.378906-.136719h.078125c1.601562-.054688 3.257812-.128906 4.984375-.207031l1.367187-.066407c1.785157-.085937 3.617188-.183593 5.527344-.292968h.113282c1.914062-.121094 3.894531-.257813 5.914062-.402344l1.597656-.121094c2.023438-.160156 4.082032-.328125 6.175782-.519531h.199218c2.113282-.191406 4.265625-.414063 6.402344-.65625l1.703125-.191406c2.152344-.246094 4.3125-.511719 6.480469-.800781h.207031c2.183594-.292969 4.367187-.628907 6.542969-.984376l1.714844-.277343c2.152343-.359375 4.304687-.746094 6.398437-1.160157h.152344c2.128906-.425781 4.199219-.886718 6.257812-1.367187l1.597657-.394531c2-.488282 4-1.007813 5.863281-1.558594l.175781-.046875c1.929688-.578125 3.769531-1.195313 5.601562-1.832031l1.367188-.496094c1.722656-.648438 3.394531-1.320312 4.960938-2.042969l.136718-.054687.03125 29.015625c-1.039062 1.90625-10.585937 8.359375-39.824218 12.871093-28.328126 3.886719-56.980469 4.851563-85.503907 2.882813-4.742187-.320313-9.40625-.722656-13.953125-1.199219-4.542968-.480468-8.941406-1.042968-13.183594-1.675781-29.296874-4.503906-38.816406-10.957031-39.695312-12.078125zm0 87.464844v-29.296875l.160156.070312c1.601563.714844 3.199219 1.386719 4.953125 2.027344l1.3125.488281c1.796875.636719 3.652344 1.253906 5.597657 1.820313l.25.074219c1.886718.550781 3.832031 1.054687 5.816406 1.542968l1.597656.382813c2.054688.480469 4.144531.945312 6.28125 1.371093l.222656.039063c2.097656.414063 4.234375.800781 6.402344 1.152344l1.597656.269531c2.199219.355469 4.402344.691406 6.609375.992188h.121094c2.199219.296874 4.390625.5625 6.574219.800781l1.640625.183593c2.175781.242188 4.332031.460938 6.472656.664063h.167969c2.101562.191406 4.167968.359375 6.199218.519531l1.597657.121094c2.019531.144531 4 .289062 5.929687.402344h.070313c1.929687.109375 3.769531.207031 5.601562.292968l1.351563.066407c1.738281.078125 3.425781.152343 4.992187.207031h.082031c1.597657.054688 3.03125.105469 4.414063.136719h1.023437c2.6875.0625 4.914063.09375 6.59375.101562h4.925782c1.679687 0 3.90625-.039062 6.59375-.101562h1.023437c1.382813 0 2.839844-.082031 4.417969-.136719h.078125c1.601563-.054688 3.257813-.128906 4.992187-.207031l1.351563-.066407c1.785156-.085937 3.625-.183593 5.542969-.292968h.089844c1.917968-.113282 3.910156-.257813 5.925781-.402344l1.601562-.121094c2.03125-.160156 4.097657-.328125 6.199219-.519531h.167969c2.132812-.203125 4.292969-.421875 6.472656-.664063l1.640625-.183593c2.183594-.253907 4.375-.519531 6.574219-.800781h.121093c2.207032-.300782 4.410157-.636719 6.609376-.992188l1.597656-.269531c2.144531-.351563 4.28125-.738281 6.402344-1.152344l.222656-.039063c2.136718-.425781 4.222656-.890624 6.28125-1.371093l1.597656-.382813c1.976562-.488281 3.921875-.992187 5.800781-1.542968l.265625-.074219c1.933594-.566407 3.792969-1.183594 5.597656-1.820313l1.3125-.488281c1.722657-.640625 3.394532-1.3125 4.953126-2.027344l.160156-.070312v29.296875c-4.25 6.0625-39.007813 16.535156-96.152344 16.535156s-91.902344-10.472656-96-16.535156zm0 0"/><path d="m480 272v-48c0-31.105469-100.535156-32-112-32s-112 .894531-112 32v48c0 8.207031 6.71875 14.832031 20.34375 20-13.617188 5.167969-20.34375 11.792969-20.34375 20v48c0 8.207031 6.71875 14.832031 20.34375 20-13.617188 5.167969-20.34375 11.792969-20.34375 20v48c0 31.105469 100.535156 32 112 32s112-.894531 112-32v-48c0-8.207031-6.71875-14.832031-20.335938-20 13.617188-5.167969 20.335938-11.792969 20.335938-20v-48c0-8.207031-6.71875-14.832031-20.335938-20 13.617188-5.167969 20.335938-11.792969 20.335938-20zm-16.480469-48c-.09375.105469-.191406.214844-.304687.328125-.230469.222656-.476563.429687-.734375.625-.265625.203125-.554688.402344-.863281.597656-.335938.21875-.6875.441407-1.082032.65625-.390625.21875-.800781.425781-1.207031.640625s-.894531.449219-1.398437.671875c-.503907.222657-1.007813.441407-1.546876.664063-.535156.222656-1.117187.457031-1.726562.6875-.609375.234375-1.242188.449218-1.886719.671875-.648437.226562-1.3125.457031-2.027343.679687-.710938.226563-1.484376.457032-2.253907.6875-.769531.234375-1.496093.441406-2.304687.664063-.808594.226562-1.703125.449219-2.582032.671875-.882812.226562-1.699218.441406-2.601562.648437-.902344.210938-1.945312.441407-2.9375.65625-.992188.21875-1.871094.417969-2.863281.617188-.992188.199219-2.175781.425781-3.289063.632812-1.109375.207031-2.039062.382813-3.117187.566407-1.082031.183593-2.402344.402343-3.679688.59375-1.089843.175781-2.160156.351562-3.296875.519531-1.328125.191406-2.738281.367187-4.128906.542969-1.144531.152343-2.273438.3125-3.457031.449218-1.4375.175782-2.941407.320313-4.429688.480469-1.25.125-2.457031.261719-3.746093.382813-1.597657.152343-3.238282.273437-4.878907.40625-1.265625.097656-2.503906.210937-3.808593.304687-1.824219.128906-3.734376.226563-5.597657.328125-1.21875.066406-2.402343.144531-3.625.199219-2.183593.105469-4.457031.167969-6.71875.234375-1.035156 0-2.027343.078125-3.074219.101562-3.375.058594-6.828124.089844-10.351562.089844s-6.96875-.039062-10.328125-.121094c-1.046875 0-2.039063-.070312-3.070313-.101562-2.265624-.066406-4.539062-.128906-6.722656-.234375-1.238281-.054688-2.398437-.136719-3.621094-.199219-1.890624-.105469-3.800781-.199219-5.601562-.328125-1.304688-.09375-2.542969-.207031-3.808594-.304687-1.601562-.136719-3.304687-.253907-4.878906-.40625-1.289062-.121094-2.496094-.257813-3.746094-.382813-1.488281-.160156-2.992187-.304687-4.429687-.480469-1.183594-.136718-2.3125-.296875-3.457031-.449218-1.390626-.175782-2.800782-.351563-4.128907-.542969-1.136719-.167969-2.207031-.34375-3.296875-.519531-1.238281-.195313-2.496094-.386719-3.679687-.59375-1.183594-.207032-2.085938-.375-3.117188-.566407-1.035156-.195312-2.234375-.417969-3.289062-.632812-1.054688-.214844-1.921875-.410157-2.863281-.617188-.945313-.207031-1.992188-.429687-2.9375-.65625-.945313-.222656-1.75-.429687-2.597657-.648437-.851562-.214844-1.761719-.445313-2.585937-.671875-.824219-.222657-1.550782-.4375-2.304688-.664063-.75-.222656-1.542968-.453125-2.253906-.6875-.714844-.230468-1.371094-.457031-2.023438-.679687-.65625-.222657-1.296874-.449219-1.890624-.671875-.589844-.222656-1.167969-.464844-1.726563-.6875-.5625-.222656-1.066406-.441406-1.542969-.664063-.480468-.222656-.960937-.449219-1.402344-.671875-.4375-.222656-.839843-.425781-1.207031-.640625-.367187-.214843-.746093-.441406-1.082031-.65625-.335938-.214843-.597656-.398437-.863281-.597656-.253907-.195313-.5-.402344-.734375-.625-.113282-.113281-.207032-.226563-.304688-.328125 5.785156-6.136719 40.136719-16 95.519532-16 55.382812 0 89.710937 9.863281 95.496093 16.03125zm-139.582031 77.753906c.359375 0 .726562.0625 1.085938.09375 14.28125 1.445313 28.625 2.164063 42.976562 2.152344 14.300781.007812 28.59375-.707031 42.824219-2.136719l1.253906-.109375c2.59375-.273437 5.066406-.617187 7.578125-.9375 1.9375-.25 3.953125-.449218 5.839844-.71875 25.207031 4 35.335937 9.429688 37.992187 11.902344-.105469.113281-.191406.222656-.3125.335938-.121093.113281-.441406.382812-.695312.585937-.257813.199219-.59375.429687-.9375.644531-.34375.21875-.632813.402344-.992188.601563s-.847656.464843-1.320312.695312c-.46875.234375-.796875.410157-1.285157.617188-.488281.207031-1.097656.480469-1.6875.726562-.59375.25-1.027343.417969-1.601562.625-.578125.207031-1.34375.488281-2.046875.726563-.707031.242187-1.21875.425781-1.867187.632812-.796876.25-1.597657.488282-2.398438.738282l-2.144531.613281c-.871094.242187-1.808594.480469-2.742188.714843l-2.457031.613282c-.992188.234375-2.039062.457031-3.089844.6875-.886718.195312-1.765625.394531-2.703125.578125-1.109375.222656-2.285156.449219-3.453125.664062-.976562.183594-1.945312.367188-2.960937.542969-1.234375.207031-2.527344.410156-3.808594.609375-1.054687.167969-2.089844.335937-3.199219.496094-1.359375.199219-2.792968.375-4.21875.558593-1.117187.152344-2.207031.304688-3.367187.441407-1.472657.167969-3.023438.328125-4.558594.488281-1.199219.125-2.402344.253906-3.601563.375-1.597656.144531-3.320312.273438-5 .40625-1.230468.097656-2.398437.210938-3.703124.296875-1.839844.128906-3.777344.222656-5.6875.328125-1.183594.0625-2.335938.144531-3.550782.199219-2.195312.105469-4.480468.167969-6.761718.242187-1.015626 0-1.992188.070313-3.03125.09375-3.34375.082032-6.78125.121094-10.304688.121094s-6.960938-.039062-10.3125-.121094c-1.039062 0-2.015625-.070312-3.03125-.09375-2.28125-.074218-4.566406-.136718-6.761719-.242187-1.214843-.054688-2.398437-.136719-3.550781-.199219-1.910156-.105469-3.847656-.199219-5.6875-.328125-1.273438-.085937-2.472656-.199219-3.710938-.296875-1.679687-.132812-3.378906-.261719-4.992187-.40625-1.234375-.121094-2.402344-.257812-3.609375-.375-1.527344-.160156-3.078125-.320312-4.550781-.488281-1.160157-.136719-2.25-.289063-3.367188-.441407-1.425781-.183593-2.859375-.359374-4.21875-.558593-1.09375-.160157-2.128906-.328125-3.199219-.496094-1.28125-.199219-2.574218-.402344-3.808593-.609375-1.015625-.175781-1.984375-.359375-2.960938-.542969-1.167969-.214843-2.34375-.441406-3.453125-.664062-.9375-.183594-1.816406-.382813-2.707031-.578125-1.046875-.230469-2.09375-.453125-3.085937-.6875l-2.457032-.613282c-.933594-.234374-1.871094-.472656-2.742187-.714843l-2.144531-.613281c-.800782-.25-1.648438-.488282-2.402344-.738282l-1.878906-.632812c-.703126-.238282-1.390626-.488282-2.03125-.726563-.640626-.238281-1.078126-.417969-1.601563-.632812-.519531-.214844-1.160156-.480469-1.6875-.71875-.527344-.242188-.878906-.410157-1.285156-.617188-.410157-.207031-.914063-.464843-1.320313-.695312-.410156-.230469-.6875-.398438-.992187-.601563-.304688-.199218-.65625-.4375-.9375-.644531-.28125-.210937-.488281-.394531-.695313-.585937-.207031-.191407-.207031-.222657-.3125-.335938 2.65625-2.472656 12.800782-7.894531 37.992188-11.902344 1.886718.269532 3.894531.46875 5.832031.71875 2.527344.320313 5.007813.664063 7.609375.9375zm0 88c.359375 0 .726562.0625 1.085938.09375 14.28125 1.445313 28.625 2.164063 42.976562 2.152344 14.300781.007812 28.59375-.707031 42.824219-2.136719l1.253906-.109375c2.59375-.273437 5.066406-.617187 7.578125-.9375 1.9375-.25 3.953125-.449218 5.839844-.71875 25.207031 4 35.335937 9.429688 37.992187 11.902344-.105469.113281-.191406.222656-.3125.335938-.121093.113281-.441406.382812-.695312.585937-.257813.199219-.59375.429687-.9375.644531-.34375.21875-.632813.402344-.992188.601563s-.847656.464843-1.320312.695312c-.46875.234375-.796875.410157-1.285157.617188-.488281.207031-1.097656.480469-1.6875.726562-.59375.25-1.027343.417969-1.601562.625-.578125.207031-1.34375.488281-2.046875.726563-.707031.242187-1.21875.425781-1.867187.632812-.796876.25-1.597657.488282-2.398438.738282l-2.144531.613281c-.871094.242187-1.808594.480469-2.742188.714843l-2.457031.613282c-.992188.234375-2.039062.457031-3.089844.6875-.886718.195312-1.765625.394531-2.703125.578125-1.109375.222656-2.285156.449219-3.453125.664062-.976562.183594-1.945312.367188-2.960937.542969-1.234375.207031-2.527344.410156-3.808594.609375-1.054687.167969-2.089844.335937-3.199219.496094-1.359375.199219-2.792968.375-4.21875.558593-1.117187.152344-2.207031.304688-3.367187.441407-1.472657.167969-3.023438.328125-4.558594.488281-1.199219.125-2.402344.253906-3.601563.375-1.597656.144531-3.320312.273438-5 .40625-1.230468.097656-2.398437.210938-3.703124.296875-1.839844.128906-3.777344.222656-5.6875.328125-1.183594.0625-2.335938.144531-3.550782.199219-2.195312.105469-4.480468.167969-6.761718.242187-1.015626 0-1.992188.070313-3.03125.09375-3.34375.082032-6.78125.121094-10.304688.121094s-6.960938-.039062-10.3125-.121094c-1.039062 0-2.015625-.070312-3.03125-.09375-2.28125-.074218-4.566406-.136718-6.761719-.242187-1.214843-.054688-2.398437-.136719-3.550781-.199219-1.910156-.105469-3.847656-.199219-5.6875-.328125-1.273438-.085937-2.472656-.199219-3.710938-.296875-1.679687-.132812-3.378906-.261719-4.992187-.40625-1.234375-.121094-2.402344-.257812-3.609375-.375-1.527344-.160156-3.078125-.320312-4.550781-.488281-1.160157-.136719-2.25-.289063-3.367188-.441407-1.425781-.183593-2.859375-.359374-4.21875-.558593-1.09375-.160157-2.128906-.328125-3.199219-.496094-1.28125-.199219-2.574218-.402344-3.808593-.609375-1.015625-.175781-1.984375-.359375-2.960938-.542969-1.167969-.214843-2.34375-.441406-3.453125-.664062-.9375-.183594-1.816406-.382813-2.707031-.578125-1.046875-.230469-2.09375-.453125-3.085937-.6875l-2.457032-.613282c-.933594-.234374-1.871094-.472656-2.742187-.714843l-2.144531-.613281c-.800782-.25-1.648438-.488282-2.402344-.738282l-1.878906-.632812c-.703126-.238282-1.390626-.488282-2.03125-.726563-.640626-.238281-1.078126-.417969-1.601563-.632812-.519531-.214844-1.160156-.480469-1.6875-.71875-.527344-.242188-.878906-.410157-1.285156-.617188-.410157-.207031-.914063-.464843-1.320313-.695312-.410156-.230469-.6875-.398438-.992187-.601563-.304688-.199218-.65625-.4375-.9375-.644531-.28125-.210937-.488281-.394531-.695313-.585937-.207031-.191407-.207031-.222657-.3125-.335938 2.65625-2.472656 12.800782-7.894531 37.992188-11.902344 1.886718.269532 3.894531.46875 5.832031.71875 2.527344.320313 5.007813.664063 7.609375.9375zm140.0625 57.710938c-4.097656 6.0625-38.855469 16.535156-96 16.535156s-91.902344-10.472656-96-16.535156v-29.296875l.160156.070312c1.601563.714844 3.199219 1.386719 4.953125 2.027344l1.3125.488281c1.796875.636719 3.652344 1.253906 5.597657 1.820313l.25.074219c1.886718.550781 3.832031 1.054687 5.816406 1.542968l1.597656.382813c2.054688.480469 4.144531.945312 6.28125 1.371093h.222656c2.097656.414063 4.234375.796876 6.402344 1.152344l1.597656.269532c2.199219.351562 4.402344.6875 6.609375.992187h.121094c2.199219.296875 4.390625.5625 6.574219.800781l1.601562.183594c2.175782.242188 4.332032.460938 6.46875.664062h.167969c2.105469.191407 4.167969.359376 6.203125.519532l1.597656.121094c2.015625.144531 4 .289062 5.929688.398437h.070312c1.929688.113281 3.769532.210937 5.601563.296875l1.351562.0625c1.734375.082031 3.421875.152344 4.992188.210938h.078125c1.601562.054687 3.035156.101562 4.417968.136718h1.023438c2.6875.0625 4.910156.09375 6.59375.101563h4.925781c1.679688 0 3.90625 0 6.59375-.101563h1.023438c1.382812 0 2.839843-.082031 4.414062-.136718h.082031c1.597657-.058594 3.253907-.128907 4.992188-.210938l1.351562-.0625c1.785157-.085938 3.625-.183594 5.542969-.296875h.089844c1.917969-.109375 3.910156-.253906 5.925781-.398437l1.601563-.121094c2.03125-.160156 4.09375-.328125 6.199219-.519532h.167968c2.132813-.203124 4.289063-.421874 6.472656-.664062l1.597657-.183594c2.1875-.257812 4.378906-.519531 6.578125-.800781h.121094c2.207031-.304687 4.40625-.640625 6.605468-.992187l1.601563-.269532c2.144531-.355468 4.28125-.738281 6.398437-1.152344h.226563c2.132812-.425781 4.222656-.890624 6.277343-1.371093l1.601563-.382813c1.976563-.488281 3.917969-.992187 5.800781-1.542968l.261719-.074219c1.9375-.566407 3.792969-1.183594 5.601563-1.820313l1.3125-.488281c1.71875-.640625 3.390624-1.3125 4.949218-2.027344l.160156-.070312zm-39.664062-75.375c-28.328126 3.882812-56.980469 4.847656-85.503907 2.878906-4.742187-.320312-9.40625-.722656-13.953125-1.199219-4.542968-.480469-8.941406-1.042969-13.183594-1.671875-29.296874-4.523437-38.816406-10.976562-39.695312-12.097656v-29.832031l.160156.070312c1.601563.714844 3.199219 1.386719 4.953125 2.027344l1.3125.488281c1.796875.636719 3.652344 1.253906 5.597657 1.820313l.25.074219c1.886718.550781 3.832031 1.054687 5.816406 1.542968l1.597656.382813c2.054688.480469 4.144531.945312 6.28125 1.371093h.222656c2.097656.414063 4.234375.796876 6.402344 1.152344l1.597656.269532c2.199219.351562 4.402344.6875 6.609375.992187h.121094c2.199219.296875 4.390625.5625 6.574219.800781l1.601562.183594c2.175782.242188 4.332032.460938 6.46875.664062h.167969c2.105469.191407 4.167969.359376 6.203125.519532l1.597656.121094c2.015625.144531 4 .289062 5.929688.398437h.070312c1.929688.113281 3.769532.210937 5.601563.296875l1.351562.0625c1.734375.082031 3.421875.152344 4.992188.210938h.078125c1.601562.054687 3.035156.101562 4.417968.136718h1.023438c2.6875.0625 4.910156.09375 6.59375.101563h4.933594c1.664062 0 3.871094 0 6.542968-.101563h1.121094c1.367188 0 2.808594-.082031 4.375-.136718h.082032c1.597656-.058594 3.253906-.128907 4.984374-.210938l1.367188-.0625c1.785156-.085938 3.617188-.183594 5.527344-.296875h.113281c1.910156-.117187 3.894531-.253906 5.910156-.398437l1.601563-.121094c2.023437-.160156 4.078125-.328125 6.175781-.519532h.199219c2.113281-.191406 4.265625-.414062 6.402344-.65625l1.703124-.191406c2.152344-.25 4.3125-.511718 6.480469-.800781h.207031c2.183594-.296875 4.367188-.632813 6.542969-.984375l1.710938-.277344c2.152343-.363281 4.304687-.746094 6.402343-1.160156h.152344c2.128906-.425781 4.199219-.890625 6.253906-1.371094l1.601563-.390625c2-.488281 4-1.007812 5.863281-1.601562l.175782-.046875c1.929687-.574219 3.769531-1.191406 5.601562-1.832032l1.367188-.496093c1.71875-.648438 3.390624-1.320313 4.960937-2.039063l.136719-.054687.070312 29.09375c-1.039062 1.921875-10.558594 8.375-39.824218 12.890625zm0-88c-28.328126 3.882812-56.980469 4.847656-85.503907 2.878906-4.742187-.320312-9.40625-.722656-13.953125-1.199219-4.542968-.480469-8.941406-1.042969-13.183594-1.671875-29.296874-4.523437-38.816406-10.976562-39.695312-12.097656v-29.832031l.160156.070312c1.601563.714844 3.199219 1.386719 4.953125 2.027344l1.3125.488281c1.796875.636719 3.652344 1.253906 5.597657 1.820313l.25.074219c1.886718.550781 3.832031 1.054687 5.816406 1.542968l1.597656.382813c2.054688.480469 4.144531.945312 6.28125 1.371093h.222656c2.097656.414063 4.234375.796876 6.402344 1.152344l1.597656.269532c2.199219.351562 4.402344.6875 6.609375.992187h.121094c2.199219.296875 4.390625.5625 6.574219.800781l1.601562.183594c2.175782.242188 4.332032.460938 6.46875.664062h.167969c2.105469.191407 4.167969.359376 6.203125.519532l1.597656.121094c2.015625.144531 4 .289062 5.929688.398437h.070312c1.929688.113281 3.769532.210937 5.601563.296875l1.351562.0625c1.734375.082031 3.421875.152344 4.992188.210938h.078125c1.601562.054687 3.035156.101562 4.417968.136718h1.023438c2.6875.0625 4.910156.09375 6.59375.101563h4.933594c1.664062 0 3.871094 0 6.542968-.101563h1.121094c1.367188 0 2.808594-.082031 4.375-.136718h.082032c1.597656-.058594 3.253906-.128907 4.984374-.210938l1.367188-.0625c1.785156-.085938 3.617188-.183594 5.527344-.296875h.113281c1.910156-.117187 3.894531-.253906 5.910156-.398437l1.601563-.121094c2.023437-.160156 4.078125-.328125 6.175781-.519532h.199219c2.113281-.191406 4.265625-.414062 6.402344-.65625l1.703124-.191406c2.152344-.25 4.3125-.511718 6.480469-.800781h.207031c2.183594-.296875 4.367188-.632813 6.542969-.984375l1.710938-.277344c2.152343-.363281 4.304687-.746094 6.402343-1.160156h.152344c2.128906-.425781 4.199219-.890625 6.253906-1.371094l1.601563-.390625c2-.488281 4-1.007812 5.863281-1.601562l.175782-.046875c1.929687-.574219 3.769531-1.191406 5.601562-1.832032l1.367188-.496093c1.71875-.648438 3.390624-1.320313 4.960937-2.039063l.136719-.054687.070312 29.09375c-1.039062 1.921875-10.558594 8.375-39.824218 12.890625zm0 0"/><path d="m360 56v84.6875l-20.28125-20.289062c-2.007812-2.078126-4.980469-2.914063-7.777344-2.179688-2.796875.730469-4.984375 2.917969-5.714844 5.714844-.730468 2.796875.101563 5.769531 2.179688 7.777344l33.929688 33.9375c.738281.738281 1.617187 1.324218 2.585937 1.726562 1.96875.832031 4.1875.832031 6.15625 0 .96875-.402344 1.847656-.988281 2.585937-1.726562l33.929688-33.9375c2.078125-2.007813 2.910156-4.980469 2.179688-7.777344-.730469-2.796875-2.917969-4.984375-5.714844-5.714844-2.796875-.734375-5.769532.101562-7.777344 2.179688l-20.28125 20.289062v-92.6875c0-4.417969-3.582031-8-8-8h-112c-4.417969 0-8 3.582031-8 8s3.582031 8 8 8zm0 0"/><path d="m224 424h-104v-84.6875l20.28125 20.289062c3.136719 3.03125 8.128906 2.988282 11.214844-.097656 3.085937-3.085937 3.128906-8.078125.097656-11.214844l-33.929688-33.9375c-1.5-1.503906-3.539062-2.351562-5.664062-2.351562s-4.164062.847656-5.664062 2.351562l-33.929688 33.9375c-2.078125 2.007813-2.910156 4.980469-2.179688 7.777344.730469 2.796875 2.917969 4.984375 5.714844 5.714844 2.796875.734375 5.769532-.101562 7.777344-2.179688l20.28125-20.289062v92.6875c0 4.417969 3.582031 8 8 8h112c4.417969 0 8-3.582031 8-8s-3.582031-8-8-8zm0 0"/></svg>